<svg width="100" height="278" viewBox="0 0 100 278" fill="none" xmlns="http://www.w3.org/2000/svg">
<path d="M66.1222 80.1893C65.1789 78.4766 64.4558 76.9859 63.6069 75.5904C61.1859 71.6576 58.8907 67.5979 56.1553 63.8871C54.3002 61.3815 52.0364 59.0663 49.5526 57.1951C43.1071 52.3108 35.6869 53.6111 30.9078 60.2081C25.5942 67.5345 25.72 79.777 31.1594 87.0082C33.7376 90.4019 37.1646 92.3682 41.3463 92.4634C45.308 92.5585 49.2696 92.2097 53.2312 91.8291C55.7151 91.6071 58.1675 90.9727 60.84 90.497C63.1981 95.0007 63.7012 99.8533 64.11 104.611C64.7702 112.381 64.9903 120.183 65.399 127.985C65.4933 129.666 65.399 131.379 65.5877 133.06C65.8707 135.502 67.1283 136.866 68.9519 136.993C70.9327 137.12 72.379 135.566 72.6935 132.775C72.8192 131.506 72.7878 130.237 72.8192 128.969C72.9764 115.838 72.3476 102.803 69.1091 89.9895C68.9519 89.3869 69.0148 88.7526 68.9519 87.706C69.7694 87.0716 70.6498 86.2153 71.6559 85.5493C76.3721 82.4094 79.6106 78.0642 81.497 72.7676C85.9303 60.2715 88.0054 47.3948 86.5277 34.1691C85.5844 25.6692 82.4403 17.8036 77.3153 10.8895C70.9642 2.35788 62.5693 -1.32119 52.0679 0.4232C49.1753 0.898942 46.3141 1.53326 43.5158 2.32617C41.7866 2.80191 41.032 4.22914 41.2521 5.65636C41.4722 7.02015 42.7613 8.19364 44.3962 8.25707C45.6224 8.28878 46.8801 8.1302 48.1377 7.93991C51.8792 7.40073 55.5893 7.43245 59.3623 7.78133C62.7265 8.06677 65.4934 9.2403 67.7886 11.4604C69.7379 13.3317 71.593 15.4249 73.0079 17.7402C76.9066 24.1151 79.2333 31.0927 79.5162 38.6411C79.8935 48.6634 78.4786 58.432 75.5546 67.9785C74.2969 72.0699 72.4733 75.8441 69.0462 78.5717C68.1973 79.1743 67.2226 79.5549 66.1222 80.1893ZM58.8593 83.3609C56.1867 84.0269 54.3946 84.5978 52.571 84.8833C49.8985 85.3273 47.1944 85.803 44.4905 85.8347C38.7996 85.9299 35.9384 83.7732 34.3664 78.3497C33.2345 74.4169 33.2659 70.4524 34.9952 66.6147C37.3847 61.3499 41.8495 59.1615 46.8172 64.2678C52.005 69.5644 55.7151 75.8124 58.8593 83.3609Z" fill="#4F5967"/>
<path d="M66.1222 184.811C65.1789 186.523 64.4558 188.014 63.6069 189.41C61.1859 193.342 58.8907 197.402 56.1553 201.113C54.3002 203.618 52.0364 205.934 49.5526 207.805C43.1071 212.689 35.6869 211.389 30.9078 204.792C25.5942 197.465 25.72 185.223 31.1594 177.992C33.7376 174.598 37.1646 172.632 41.3463 172.537C45.308 172.441 49.2696 172.79 53.2312 173.171C55.7151 173.393 58.1675 174.027 60.84 174.503C63.1981 169.999 63.7012 165.147 64.11 160.389C64.7702 152.619 64.9903 144.817 65.399 137.015C65.4933 135.334 65.399 133.621 65.5877 131.94C65.8707 129.498 67.1283 128.134 68.9519 128.007C70.9327 127.88 72.379 129.434 72.6935 132.225C72.8192 133.494 72.7878 134.763 72.8192 136.031C72.9764 149.162 72.3476 162.197 69.1091 175.01C68.9519 175.613 69.0148 176.247 68.9519 177.294C69.7694 177.928 70.6498 178.785 71.6559 179.451C76.3721 182.591 79.6106 186.936 81.497 192.232C85.9303 204.729 88.0054 217.605 86.5277 230.831C85.5844 239.331 82.4403 247.196 77.3153 254.11C70.9642 262.642 62.5693 266.321 52.0679 264.577C49.1753 264.101 46.3141 263.467 43.5158 262.674C41.7866 262.198 41.032 260.771 41.2521 259.344C41.4722 257.98 42.7613 256.806 44.3962 256.743C45.6224 256.711 46.8801 256.87 48.1377 257.06C51.8792 257.599 55.5893 257.568 59.3623 257.219C62.7265 256.933 65.4934 255.76 67.7886 253.54C69.7379 251.668 71.593 249.575 73.0079 247.26C76.9066 240.885 79.2333 233.907 79.5162 226.359C79.8935 216.337 78.4786 206.568 75.5546 197.021C74.2969 192.93 72.4733 189.156 69.0462 186.428C68.1973 185.826 67.2226 185.445 66.1222 184.811ZM58.8593 181.639C56.1867 180.973 54.3946 180.402 52.571 180.117C49.8985 179.673 47.1944 179.197 44.4905 179.165C38.7996 179.07 35.9384 181.227 34.3664 186.65C33.2345 190.583 33.2659 194.548 34.9952 198.385C37.3847 203.65 41.8495 205.839 46.8172 200.732C52.005 195.436 55.7151 189.188 58.8593 181.639Z" fill="#6366F1"/>
<path d="M53.1809 247.212C52.6679 249.027 52.4433 250.389 51.9007 251.639C50.5559 254.778 49.0984 257.853 47.6794 260.961C47.1011 262.214 46.4457 263.401 46.7144 264.911C46.8068 265.451 46.5375 266.241 46.1365 266.631C45.1696 267.605 44.8832 268.821 44.4808 270.024C43.9725 271.53 43.3839 273.021 42.7062 274.475C42.405 275.132 41.8898 275.718 41.3304 276.2C40.5228 276.91 39.3823 276.948 38.7436 276.135C37.4927 274.571 35.778 273.424 34.8952 271.508C32.747 266.829 29.7355 262.699 26.4163 258.772C24.4194 256.404 22.4913 253.994 20.59 251.561C20.0075 250.822 19.515 249.947 19.2161 249.065C18.7468 247.749 19.7453 246.442 21.1299 246.4C21.6539 246.388 22.1984 246.453 22.7127 246.593C26.0097 247.466 29.2775 247.133 32.5211 246.306C34.5871 245.779 36.6007 245.041 38.6519 244.508C41.7465 243.707 44.8411 242.906 47.9645 242.289C49.416 241.997 50.9399 242.08 52.4285 242.079C53.5211 242.074 54.5223 242.463 55.3309 243.242C56.3883 244.26 56.2969 245.762 55.0515 246.484C54.4183 246.85 53.6761 247.015 53.1809 247.212Z" fill="#6366F1"/>
</svg>
