<svg width="100" height="100" viewBox="0 0 100 100" fill="none" xmlns="http://www.w3.org/2000/svg">
<path fill-rule="evenodd" clip-rule="evenodd" d="M41 58.75C41 58.0596 41.5596 57.5 42.25 57.5H57.25C57.9404 57.5 58.5 58.0596 58.5 58.75C58.5 59.4404 57.9404 60 57.25 60H42.25C41.5596 60 41 59.4404 41 58.75ZM45.1161 49.1161C45.6043 48.628 46.3957 48.628 46.8839 49.1161L48.5 50.7322L48.5 41.25C48.5 40.5596 49.0596 40 49.75 40C50.4404 40 51 40.5596 51 41.25L51 50.7322L52.6161 49.1161C53.1043 48.628 53.8957 48.628 54.3839 49.1161C54.872 49.6043 54.872 50.3957 54.3839 50.8839L50.6339 54.6339C50.3995 54.8683 50.0815 55 49.75 55C49.4185 55 49.1005 54.8683 48.8661 54.6339L45.1161 50.8839C44.628 50.3957 44.628 49.6043 45.1161 49.1161Z" fill="#6366F1"/>
<rect x="27" y="5" width="46" height="90" stroke="#6366F1" stroke-width="10" stroke-linejoin="round"/>
</svg>
