<svg width="100" height="100" viewBox="0 0 100 100" fill="none" xmlns="http://www.w3.org/2000/svg">
<path d="M26.409 61.8518C26.8973 57.8084 28.5557 55.5445 31.6808 53.2238C36.1522 50.0807 41.7377 51.8586 41.7377 51.8586V41.3112C43.0956 41.2765 44.454 41.357 45.7971 41.5518V55.1252C45.7971 55.1252 40.2133 53.3473 35.7419 56.492C32.6185 58.8111 30.9567 61.0766 30.4701 65.12C30.4548 67.3157 30.8669 70.1857 32.7643 72.6674C32.2952 72.4268 31.817 72.1527 31.3298 71.845C27.15 69.0383 26.3886 64.8275 26.409 61.8518ZM68.8596 21.8091C65.7837 18.4385 64.6205 15.0354 64.2 12.6448H68.0694C68.0694 12.6448 67.2979 18.9131 72.9207 25.0774L72.9987 25.1602C71.4833 24.207 70.0935 23.0818 68.8596 21.8091ZM87.4999 31.3652V44.6656C87.4999 44.6656 82.5622 44.4722 78.908 43.5426C73.8058 42.2425 70.5264 40.2484 70.5264 40.2484C70.5264 40.2484 68.2611 38.8263 68.0779 38.7272V66.1927C68.0779 67.7219 67.6591 71.5411 66.3823 74.7265C64.7154 78.8934 62.1431 81.6286 61.6701 82.1876C61.6701 82.1876 58.5416 85.8849 53.0222 88.3747C48.0472 90.6207 43.6792 90.5638 42.3735 90.6207C42.3735 90.6207 34.8228 90.9197 28.0283 86.5041C26.5591 85.5309 25.1876 84.4286 23.9316 83.2115L23.9656 83.2359C30.7617 87.6515 38.3108 87.3524 38.3108 87.3524C39.6181 87.2956 43.9861 87.3524 48.9595 85.1064C54.4737 82.6167 57.6073 78.9194 57.6073 78.9194C58.0753 78.3603 60.6594 75.6252 62.3195 71.4566C63.5929 68.2729 64.0151 64.4521 64.0151 62.9228V35.4606C64.1983 35.5614 66.462 36.9834 66.462 36.9834C66.462 36.9834 69.743 38.9791 74.8453 40.2776C78.5011 41.2072 83.4371 41.4006 83.4371 41.4006V30.9784C85.126 31.357 86.5656 31.4594 87.4999 31.3652Z" fill="#282CE4"/>
<path d="M83.4387 30.9784V41.3974C83.4387 41.3974 78.5027 41.204 74.8469 40.2744C69.7446 38.9742 66.4636 36.9801 66.4636 36.9801C66.4636 36.9801 64.1999 35.5581 64.0167 35.4574V62.9261C64.0167 64.4553 63.5979 68.2761 62.3211 71.4599C60.6543 75.6284 58.0819 78.3636 57.6089 78.9227C57.6089 78.9227 54.4787 82.6199 48.961 85.1097C43.9877 87.3557 39.6197 87.2988 38.3124 87.3557C38.3124 87.3557 30.7633 87.6547 23.9671 83.2391L23.9332 83.2147C23.2157 82.52 22.5403 81.7863 21.9103 81.0175C19.7416 78.3733 18.4122 75.2465 18.0781 74.3543C18.0776 74.3505 18.0776 74.3467 18.0781 74.3429C17.5406 72.7925 16.4113 69.0692 16.5656 65.463C16.8386 59.1004 19.0769 55.1951 19.6687 54.2167C21.236 51.5488 23.2744 49.1618 25.6933 47.1619C27.8278 45.4361 30.2473 44.063 32.8523 43.0989C35.6685 41.9669 38.6842 41.3602 41.7376 41.3112V51.8586C41.7376 51.8586 36.1521 50.0872 31.6824 53.2238C28.5573 55.5445 26.8989 57.8084 26.4106 61.8518C26.3902 64.8275 27.1516 69.0383 31.328 71.8466C31.8152 72.1554 32.2933 72.4295 32.7625 72.669C33.4921 73.6174 34.3801 74.4438 35.3907 75.1149C39.4705 77.6973 42.8889 77.8777 47.2603 76.2005C50.1751 75.0791 52.3693 72.552 53.3867 69.7518C54.026 68.0031 54.0175 66.243 54.0175 64.4228V12.6448H64.1914C64.6119 15.0354 65.7751 18.4385 68.851 21.8091C70.0849 23.0818 71.4747 24.207 72.9901 25.1602C73.4378 25.6234 75.7269 27.9133 78.6655 29.3191C80.1849 30.0457 81.7865 30.6025 83.4387 30.9784V30.9784Z" fill="#6366F1"/>
<path d="M14.0288 71.1155V71.1236L14.2813 71.8078C14.2523 71.7282 14.1584 71.486 14.0288 71.1155Z" fill="#AEAFEE"/>
<path d="M32.8526 43.099C30.2475 44.0631 27.8281 45.4362 25.6935 47.162C23.2738 49.1664 21.2359 51.5584 19.6706 54.2315C19.0788 55.2066 16.8405 59.1151 16.5675 65.4777C16.4132 69.0839 17.5425 72.8072 18.08 74.3576C18.0795 74.3614 18.0795 74.3652 18.08 74.369C18.4192 75.2531 19.7435 78.3799 21.9122 81.0322C22.5422 81.8011 23.2176 82.5347 23.9351 83.2295C21.6361 81.7055 19.5858 79.8631 17.8511 77.7624C15.701 75.141 14.375 72.0466 14.0291 71.1333C14.0287 71.1268 14.0287 71.1203 14.0291 71.1138V71.1024C13.4899 69.5536 12.3572 65.8287 12.5149 62.2176C12.7879 55.855 15.0262 51.9497 15.618 50.9714C17.1828 48.298 19.2208 45.9059 21.6409 43.9019C23.775 42.1755 26.1945 40.8024 28.7999 39.8389C30.4251 39.1927 32.118 38.7159 33.8496 38.4169C36.4591 37.9803 39.1244 37.9424 41.7462 38.3048V41.3113C38.69 41.3592 35.6714 41.966 32.8526 43.099Z" fill="#AEAFEE"/>
<path d="M64.1998 12.6449H54.0259V64.4246C54.0259 66.2447 54.0259 67.9999 53.3951 69.7535C52.3676 72.552 50.1819 75.0792 47.2688 76.2006C42.8957 77.8842 39.4772 77.6974 35.3992 75.115C34.3869 74.4469 33.4965 73.6232 32.7642 72.6772C36.2385 74.4535 39.3484 74.4226 43.2009 72.9405C46.1123 71.8191 48.3014 69.2919 49.3256 66.4918C49.9665 64.7431 49.9581 62.983 49.9581 61.1645V9.375H64.0065C64.0065 9.375 63.8488 10.6621 64.1998 12.6449ZM83.4387 28.097V30.9784C81.7894 30.602 80.1907 30.0452 78.6739 29.3191C75.7354 27.9134 73.4462 25.6235 72.9986 25.1603C73.518 25.4872 74.057 25.7846 74.6128 26.0509C78.1856 27.7606 81.704 28.2709 83.4387 28.097Z" fill="#AEAFEE"/>
</svg>
