<svg width="100" height="100" viewBox="0 0 100 100" fill="none" xmlns="http://www.w3.org/2000/svg">
<path fill-rule="evenodd" clip-rule="evenodd" d="M41 58.75C41 58.0596 41.5596 57.5 42.25 57.5H57.25C57.9404 57.5 58.5 58.0596 58.5 58.75C58.5 59.4404 57.9404 60 57.25 60H42.25C41.5596 60 41 59.4404 41 58.75ZM45.1161 45.8839C44.628 45.3957 44.628 44.6043 45.1161 44.1161L48.8661 40.3661C49.1005 40.1317 49.4185 40 49.75 40C50.0815 40 50.3995 40.1317 50.6339 40.3661L54.3839 44.1161C54.872 44.6043 54.872 45.3957 54.3839 45.8839C53.8957 46.372 53.1043 46.372 52.6161 45.8839L51 44.2678L51 53.75C51 54.4404 50.4404 55 49.75 55C49.0596 55 48.5 54.4404 48.5 53.75L48.5 44.2678L46.8839 45.8839C46.3957 46.372 45.6043 46.372 45.1161 45.8839Z" fill="#4F5967"/>
<rect x="5" y="27" width="90" height="46" stroke="#4F5967" stroke-width="10" stroke-linejoin="round"/>
</svg>
