<svg width="100" height="100" viewBox="0 0 100 100" fill="none" xmlns="http://www.w3.org/2000/svg">
<path d="M7.01408 31.066C7.41574 24.8823 12.3873 20.0361 18.5765 19.7295C27.5387 19.2855 40.3484 18.75 50 18.75C59.6516 18.75 72.4613 19.2855 81.4235 19.7295C87.6127 20.0361 92.5843 24.8823 92.9859 31.066C93.3707 36.9904 93.75 44.2802 93.75 50C93.75 55.7198 93.3707 63.0096 92.9859 68.934C92.5843 75.1177 87.6127 79.9639 81.4235 80.2705C72.4613 80.7145 59.6516 81.25 50 81.25C40.3484 81.25 27.5387 80.7145 18.5765 80.2705C12.3873 79.9639 7.41574 75.1177 7.01408 68.934C6.62926 63.0096 6.25 55.7198 6.25 50C6.25 44.2802 6.62926 36.9904 7.01408 31.066Z" fill="#4F5967"/>
<path d="M40.625 37.5V62.5L65.625 50L40.625 37.5Z" fill="white"/>
</svg>
