<svg width="100" height="100" viewBox="0 0 100 100" fill="none" xmlns="http://www.w3.org/2000/svg">
<g clip-path="url(#clip0_117_35)">
<rect width="30" height="43" transform="translate(35 31)" fill="white"/>
<path fill-rule="evenodd" clip-rule="evenodd" d="M61.6682 2.20531C71.1001 -2.71005 82.7782 0.870679 87.7424 10.205C92.7066 19.5393 89.0851 31.0872 79.6532 36.0025L71.8976 40.0797C78.579 40.3238 84.951 43.9941 88.2876 50.2685C93.2518 59.6028 89.6385 71.1506 80.1984 76.066L38.841 97.7945C29.409 102.71 17.731 99.1291 12.7668 89.7948C7.8026 80.4605 11.424 68.9127 20.856 63.9973L28.6115 59.9202C21.9302 59.676 15.5581 56.0058 12.2215 49.7314C7.25735 40.397 10.8788 28.8492 20.3107 23.9338L61.6682 2.20531V2.20531ZM39.3456 34.6109L64.3781 50.065L39.3456 65.4459V34.6109Z" fill="#6366F1"/>
</g>
<defs>
<clipPath id="clip0_117_35">
<rect width="80.5176" height="100" fill="white" transform="translate(10)"/>
</clipPath>
</defs>
</svg>
