<svg width="1200" height="720" viewBox="0 0 1200 720" fill="none" xmlns="http://www.w3.org/2000/svg">
<rect width="1200" height="720" fill="#E6EBFE"/>
<rect width="720" height="421.558" rx="50" transform="matrix(0.999914 0.0130896 -0.0660997 0.997813 259.541 145)" fill="#E8E8E8"/>
<rect width="720" height="405" rx="50" transform="matrix(0.999914 0.0130896 -0.0660997 0.997813 246.771 145)" fill="white"/>
<rect x="-14.0072" y="-15.1635" width="257" height="447.904" rx="25" transform="matrix(0.999914 0.0130896 -0.0660997 0.997813 498.538 150.15)" stroke="#5A5EEC" stroke-width="30"/>
<path d="M589.939 350.73C598.601 350.843 606.478 344.063 607.533 335.587C608.588 327.11 602.422 320.146 593.759 320.033C585.097 319.92 577.22 326.699 576.165 335.176C575.11 343.653 581.276 350.616 589.939 350.73Z" fill="#5A5EEC"/>
<path d="M547.611 396.296C550.073 376.517 568.453 360.698 588.665 360.962C608.877 361.227 623.266 377.475 620.804 397.254L547.611 396.296Z" fill="#5A5EEC"/>
<path d="M588.81 349.447C597.094 349.555 604.641 342.958 605.668 334.712C606.694 326.466 600.811 319.694 592.527 319.585C584.244 319.477 576.697 326.074 575.67 334.32C574.644 342.566 580.527 349.338 588.81 349.447Z" fill="#6366F1"/>
<path d="M548.238 393.781C550.633 374.54 568.243 359.147 587.571 359.4C606.9 359.653 620.627 375.456 618.232 394.697L548.238 393.781Z" fill="#6366F1"/>
<rect x="-14.0072" y="-15.1635" width="257" height="435" rx="25" transform="matrix(0.999914 0.0130896 -0.0660997 0.997813 485.767 150.15)" stroke="#6366F1" stroke-width="30"/>
</svg>
