<svg width="1200" height="720" viewBox="0 0 1200 720" fill="none" xmlns="http://www.w3.org/2000/svg">
<rect width="1200" height="720" fill="#E6EBFE"/>
<rect width="720" height="421.558" rx="50" transform="matrix(0.999914 0.0130896 -0.0660997 0.997813 259.541 94)" fill="#E8E8E8"/>
<rect width="720" height="405" rx="50" transform="matrix(0.999914 0.0130896 -0.0660997 0.997813 246.771 94)" fill="white"/>
<rect x="-14.0072" y="-15.1635" width="257" height="447.904" rx="25" transform="matrix(0.999914 0.0130896 -0.0660997 0.997813 504.538 94.1502)" stroke="#5A5EEC" stroke-width="30"/>
<rect width="100" height="103.619" rx="50" transform="matrix(0.999914 0.0130896 -0.0660997 0.997813 553.38 248)" fill="#5A5EEC"/>
<path d="M589.144 276.93L625.21 299.025L586.282 320.137L589.144 276.93Z" fill="white"/>
<rect width="100" height="100" rx="50" transform="matrix(0.999914 0.0130896 -0.0660997 0.997813 546.652 247.503)" fill="#6366F1"/>
<path d="M582.415 276.434L618.481 298.528L579.553 319.64L582.415 276.434Z" fill="white"/>
<rect x="-14.0072" y="-15.1635" width="257" height="435" rx="25" transform="matrix(0.999914 0.0130896 -0.0660997 0.997813 491.767 94.1502)" stroke="#6366F1" stroke-width="30"/>
<rect width="298" height="40" transform="matrix(1 0 -0.0579125 0.998322 440.989 598.913)" fill="#6366F1"/>
<path d="M733.622 575.951L806.114 619.18L728.606 662.409L733.622 575.951Z" fill="#6366F1"/>
<path d="M448.622 575.951L443.607 662.409L371.114 619.18L448.622 575.951Z" fill="#6366F1"/>
</svg>
