<svg width="1200" height="720" viewBox="0 0 1200 720" fill="none" xmlns="http://www.w3.org/2000/svg">
<rect width="1200" height="720" fill="#E6EBFE"/>
<rect width="720" height="421.558" rx="50" transform="matrix(0.999914 0.0130896 -0.0660997 0.997813 259.541 145)" fill="#E8E8E8"/>
<rect width="720" height="405" rx="50" transform="matrix(0.999914 0.0130896 -0.0660997 0.997813 246.771 145)" fill="white"/>
<rect x="-14.0072" y="-15.1635" width="257" height="238.952" rx="25" transform="matrix(0.999914 0.0130896 -0.0660997 0.997813 672.152 211.15)" stroke="#5A5EEC" stroke-width="30"/>
<rect x="-14.0072" y="-15.1635" width="257" height="232.5" rx="25" transform="matrix(0.999914 0.0130896 -0.0660997 0.997813 659.381 211.15)" stroke="#6366F1" stroke-width="30"/>
<rect x="-14.0072" y="-15.1635" width="257" height="238.952" rx="25" transform="matrix(0.999914 0.0130896 -0.0660997 0.997813 324.152 282.15)" stroke="#5A5EEC" stroke-width="30"/>
<rect x="-14.0072" y="-15.1635" width="257" height="232.5" rx="25" transform="matrix(0.999914 0.0130896 -0.0660997 0.997813 311.381 282.15)" stroke="#6366F1" stroke-width="30"/>
</svg>
