<svg width="1200" height="720" viewBox="0 0 1200 720" fill="none" xmlns="http://www.w3.org/2000/svg">
<rect width="1200" height="720" fill="#E6EBFE"/>
<rect width="720" height="421.558" rx="50" transform="matrix(0.999914 0.0130896 -0.0660997 0.997813 259.541 76)" fill="#E8E8E8"/>
<rect width="720" height="405" rx="50" transform="matrix(0.999914 0.0130896 -0.0660997 0.997813 246.771 76)" fill="white"/>
<rect width="214.295" height="125.469" rx="25" transform="matrix(0.999914 0.0130896 -0.0660997 0.997813 313.769 551)" fill="#5A5EEC"/>
<rect width="214.295" height="120.541" rx="25" transform="matrix(0.999914 0.0130896 -0.0660997 0.997813 309.968 551)" fill="#6366F1"/>
<path d="M346.969 622.146C352.824 618.235 357.513 614.687 361.034 611.503C364.56 608.279 366.499 605.253 366.851 602.426C366.97 601.471 366.841 600.731 366.466 600.208C366.13 599.685 365.623 599.419 364.943 599.41C364.143 599.4 363.451 599.81 362.867 600.64C362.328 601.43 362.014 602.662 361.926 604.336L349.027 604.167C349.608 600.466 350.787 597.431 352.564 595.061C354.381 592.692 356.559 590.966 359.098 589.882C361.636 588.799 364.345 588.276 367.225 588.314C372.345 588.381 375.931 589.664 377.983 592.164C380.081 594.624 380.892 597.765 380.416 601.587C379.915 605.608 378.145 609.374 375.104 612.883C372.108 616.354 368.519 619.278 364.337 621.656L378.076 621.836L376.745 632.526L345.728 632.12L346.969 622.146ZM387.495 633.743C385.175 633.713 383.392 633.072 382.146 631.819C380.9 630.566 380.393 629.004 380.626 627.133C380.864 625.222 381.759 623.658 383.313 622.442C384.871 621.187 386.811 620.574 389.13 620.604C391.41 620.634 393.171 621.295 394.412 622.588C395.658 623.84 396.162 625.422 395.925 627.333C395.692 629.205 394.798 630.748 393.245 631.964C391.691 633.18 389.775 633.773 387.495 633.743ZM390.439 610.093C388.119 610.063 386.336 609.421 385.09 608.169C383.843 606.916 383.337 605.354 383.57 603.483C383.807 601.572 384.703 600.008 386.257 598.792C387.815 597.536 389.754 596.924 392.074 596.954C394.354 596.984 396.114 597.645 397.356 598.938C398.602 600.19 399.106 601.772 398.868 603.683C398.635 605.554 397.742 607.098 396.189 608.314C394.635 609.53 392.718 610.123 390.439 610.093ZM401.051 626.862L402.426 615.813L423.464 590.665L437.803 590.853L434.696 615.817L439.015 615.874L437.588 627.34L433.268 627.284L432.451 633.853L419.012 633.677L419.83 627.108L401.051 626.862ZM423.563 605.801L415.857 615.57L422.337 615.655L423.563 605.801ZM442.352 623.395C448.207 619.483 452.895 615.936 456.416 612.751C459.942 609.527 461.881 606.502 462.233 603.675C462.352 602.72 462.224 601.98 461.848 601.457C461.513 600.934 461.005 600.668 460.325 600.659C459.525 600.649 458.833 601.058 458.249 601.888C457.71 602.679 457.396 603.911 457.308 605.585L444.409 605.416C444.99 601.715 446.169 598.679 447.947 596.31C449.764 593.941 451.942 592.214 454.48 591.131C457.019 590.048 459.728 589.525 462.608 589.562C467.727 589.629 471.313 590.913 473.366 593.412C475.463 595.872 476.274 599.013 475.798 602.836C475.298 606.857 473.527 610.623 470.486 614.132C467.49 617.602 463.902 620.526 459.72 622.904L473.458 623.084L472.128 633.775L441.11 633.368L442.352 623.395Z" fill="white"/>
<rect x="-14.0072" y="-15.1635" width="257" height="447.904" rx="25" transform="matrix(0.999914 0.0130896 -0.0660997 0.997813 340.538 76.1502)" stroke="#5A5EEC" stroke-width="30"/>
<rect x="-14.0072" y="-15.1635" width="257" height="435" rx="25" transform="matrix(0.999914 0.0130896 -0.0660997 0.997813 327.767 76.1502)" stroke="#6366F1" stroke-width="30"/>
<rect width="214.295" height="125.469" rx="25" transform="matrix(0.999914 0.0130896 -0.0660997 0.997813 628.769 557)" fill="#7174EB"/>
<rect width="214.295" height="120.541" rx="25" transform="matrix(0.999914 0.0130896 -0.0660997 0.997813 624.968 557)" fill="#7B7DF1"/>
<path d="M665.405 608.75C666.115 604.013 667.946 600.408 670.898 597.934C673.89 595.461 677.826 594.256 682.705 594.32C685.865 594.361 688.498 594.934 690.604 596.039C692.71 597.143 694.209 598.618 695.101 600.464C696.033 602.311 696.355 604.389 696.067 606.698C695.721 609.485 694.788 611.667 693.27 613.242C691.757 614.777 690.146 615.813 688.436 616.349L688.407 616.588C692.983 618.443 694.969 621.799 694.364 626.656C694.047 629.204 693.167 631.446 691.725 633.381C690.282 635.316 688.374 636.807 686 637.852C683.666 638.899 680.98 639.402 677.94 639.362C672.74 639.294 668.814 638.006 666.162 635.499C663.51 632.992 662.47 629.11 663.045 623.853L676.003 624.023C675.745 625.455 675.809 626.553 676.195 627.315C676.625 628.039 677.461 628.409 678.7 628.425C679.42 628.434 680.053 628.183 680.597 627.672C681.146 627.121 681.475 626.407 681.585 625.532C681.723 624.417 681.447 623.576 680.757 623.008C680.111 622.402 678.909 622.087 677.149 622.064L674.929 622.035L676.26 611.344L678.419 611.373C681.119 611.567 682.613 610.51 682.9 608.201C683.024 607.206 682.896 606.466 682.516 605.983C682.175 605.5 681.685 605.254 681.045 605.245C679.565 605.226 678.671 606.451 678.364 608.919L665.405 608.75ZM705.424 639.782C703.105 639.751 701.321 639.11 700.075 637.857C698.829 636.605 698.322 635.043 698.555 633.171C698.793 631.26 699.689 629.697 701.242 628.481C702.801 627.225 704.74 626.612 707.06 626.643C709.34 626.673 711.1 627.334 712.341 628.626C713.588 629.879 714.092 631.461 713.854 633.372C713.621 635.243 712.728 636.787 711.174 638.003C709.621 639.219 707.704 639.812 705.424 639.782ZM708.368 616.131C706.048 616.101 704.265 615.46 703.019 614.207C701.773 612.954 701.266 611.392 701.499 609.521C701.737 607.61 702.633 606.047 704.186 604.831C705.745 603.575 707.684 602.962 710.004 602.992C712.283 603.022 714.044 603.683 715.285 604.976C716.531 606.228 717.036 607.81 716.798 609.721C716.565 611.593 715.672 613.136 714.118 614.352C712.565 615.568 710.648 616.161 708.368 616.131ZM754.065 607.876L736.666 607.649L736.042 612.665C736.886 611.998 737.933 611.474 739.182 611.091C740.472 610.709 741.876 610.528 743.396 610.548C746.116 610.584 748.336 611.251 750.058 612.55C751.779 613.848 752.966 615.579 753.618 617.741C754.275 619.863 754.443 622.218 754.121 624.806C753.526 629.584 751.703 633.289 748.651 635.921C745.644 638.514 741.781 639.779 737.061 639.717C733.622 639.672 730.716 639.036 728.345 637.809C726.014 636.582 724.32 634.904 723.263 632.777C722.245 630.65 721.945 628.233 722.362 625.527L735.321 625.697C735.242 626.334 735.387 626.934 735.758 627.497C736.129 628.06 736.814 628.348 737.814 628.361C738.814 628.374 739.598 628.026 740.167 627.315C740.737 626.605 741.098 625.633 741.252 624.398C741.395 623.244 741.224 622.364 740.739 621.76C740.293 621.156 739.57 620.847 738.57 620.834C737.73 620.823 737.066 621.014 736.576 621.406C736.087 621.798 735.81 622.253 735.745 622.771L722.786 622.601L726.117 595.846L755.514 596.23L754.065 607.876ZM780.331 609.835C780.24 608.638 779.989 607.757 779.578 607.193C779.208 606.63 778.542 606.342 777.582 606.33C776.063 606.31 774.946 607.073 774.233 608.619C773.565 610.126 773.03 612.491 772.628 615.716C773.487 614.611 774.636 613.749 776.075 613.13C777.514 612.51 779.094 612.212 780.814 612.234C784.653 612.285 787.567 613.499 789.554 615.878C791.582 618.258 792.318 621.677 791.763 626.136C791.391 629.123 790.427 631.722 788.869 633.935C787.357 636.109 785.366 637.777 782.898 638.941C780.429 640.106 777.615 640.667 774.455 640.626C768.176 640.543 764.054 638.575 762.09 634.721C760.131 630.827 759.583 625.416 760.445 618.488C761.119 613.073 762.224 608.701 763.76 605.371C765.296 602.041 767.364 599.596 769.962 598.035C772.6 596.474 775.859 595.719 779.738 595.77C784.498 595.832 787.909 597.233 789.972 599.972C792.075 602.711 793.001 606.053 792.75 609.998L780.331 609.835ZM776.25 622.344C775.17 622.33 774.273 622.617 773.559 623.206C772.845 623.795 772.421 624.627 772.287 625.702C772.138 626.896 772.327 627.796 772.852 628.401C773.423 628.967 774.268 629.257 775.388 629.272C776.508 629.287 777.402 629.019 778.072 628.47C778.786 627.881 779.217 626.989 779.366 625.795C779.5 624.72 779.284 623.879 778.718 623.274C778.153 622.668 777.33 622.358 776.25 622.344Z" fill="white"/>
<rect x="-14.0072" y="-15.1635" width="257" height="447.904" rx="25" transform="matrix(0.999914 0.0130896 -0.0660997 0.997813 655.538 82.1502)" stroke="#7174EB" stroke-width="30"/>
<rect x="-14.0072" y="-15.1635" width="257" height="435" rx="25" transform="matrix(0.999914 0.0130896 -0.0660997 0.997813 642.767 82.1502)" stroke="#7B7DF1" stroke-width="30"/>
</svg>
