<svg width="500" height="500" viewBox="0 0 500 500" fill="none" xmlns="http://www.w3.org/2000/svg">
<path fill-rule="evenodd" clip-rule="evenodd" d="M234.567 76.9037C243.909 80.7733 250 89.8892 250 100.001V400.001C250 410.112 243.909 419.228 234.567 423.098C225.225 426.967 214.472 424.828 207.322 417.678L114.645 325.001H50C36.1929 325.001 25 313.808 25 300.001V200.001C25 186.194 36.1929 175.001 50 175.001H114.645L207.322 82.3231C214.472 75.1731 225.225 73.0342 234.567 76.9037Z" fill="black"/>
<path fill-rule="evenodd" clip-rule="evenodd" d="M307.322 182.322C317.085 172.559 332.915 172.559 342.678 182.322L375 214.645L407.322 182.322C417.085 172.559 432.915 172.559 442.678 182.322C452.441 192.085 452.441 207.915 442.678 217.678L410.355 250L442.678 282.322C452.441 292.085 452.441 307.915 442.678 317.678C432.915 327.441 417.085 327.441 407.322 317.678L375 285.355L342.678 317.678C332.915 327.441 317.085 327.441 307.322 317.678C297.559 307.915 297.559 292.085 307.322 282.322L339.645 250L307.322 217.678C297.559 207.915 297.559 192.085 307.322 182.322Z" fill="black"/>
</svg>
