<svg width="500" height="500" viewBox="0 0 500 500" fill="none" xmlns="http://www.w3.org/2000/svg">
<path fill-rule="evenodd" clip-rule="evenodd" d="M450 250C450 360.457 360.457 450 250 450C139.543 450 50 360.457 50 250C50 139.543 139.543 50 250 50C360.457 50 450 139.543 450 250ZM175 200C175 186.193 186.193 175 200 175C213.807 175 225 186.193 225 200V300C225 313.807 213.807 325 200 325C186.193 325 175 313.807 175 300V200ZM300 175C286.193 175 275 186.193 275 200V300C275 313.807 286.193 325 300 325C313.807 325 325 313.807 325 300V200C325 186.193 313.807 175 300 175Z" fill="#111827"/>
</svg>
