<svg width="500" height="500" viewBox="0 0 500 500" fill="none" xmlns="http://www.w3.org/2000/svg">
<path fill-rule="evenodd" clip-rule="evenodd" d="M250 450C360.457 450 450 360.457 450 250C450 139.543 360.457 50 250 50C139.543 50 50 139.543 50 250C50 360.457 139.543 450 250 450ZM238.867 179.199C231.196 174.085 221.332 173.608 213.204 177.958C205.075 182.309 200 190.78 200 200V300C200 309.22 205.075 317.691 213.204 322.042C221.332 326.392 231.196 325.916 238.867 320.801L313.867 270.801C320.822 266.165 325 258.359 325 250C325 241.641 320.822 233.835 313.867 229.199L238.867 179.199Z" fill="#111827"/>
</svg>
