<svg width="500" height="500" viewBox="0 0 500 500" fill="none" xmlns="http://www.w3.org/2000/svg">
<path fill-rule="evenodd" clip-rule="evenodd" d="M234.567 76.9037C243.909 80.7733 250 89.8892 250 100.001V400.001C250 410.112 243.909 419.228 234.567 423.098C225.225 426.967 214.472 424.828 207.322 417.678L114.645 325.001H50C36.1929 325.001 25 313.808 25 300.001V200.001C25 186.194 36.1929 175.001 50 175.001H114.645L207.322 82.3231C214.472 75.1731 225.225 73.0342 234.567 76.9037Z" fill="#111827"/>
<path fill-rule="evenodd" clip-rule="evenodd" d="M366.421 73.222C376.184 63.4589 392.013 63.4589 401.776 73.222C446.99 118.436 475 180.97 475 249.999C475 319.027 446.99 381.562 401.776 426.775C392.013 436.538 376.184 436.538 366.421 426.775C356.658 417.012 356.658 401.183 366.421 391.42C402.641 355.2 425 305.234 425 249.999C425 194.763 402.641 144.798 366.421 108.577C356.658 98.8142 356.658 82.9851 366.421 73.222ZM295.71 143.933C305.474 134.17 321.303 134.17 331.066 143.933C344.213 157.08 354.941 172.672 362.507 189.989C370.551 208.398 375 228.712 375 249.999C375 291.413 358.183 328.947 331.066 356.065C321.303 365.828 305.474 365.828 295.71 356.065C285.947 346.302 285.947 330.472 295.71 320.709C313.834 302.586 325 277.62 325 249.999C325 235.73 322.027 222.222 316.69 210.008C311.657 198.49 304.504 188.082 295.71 179.288C285.947 169.525 285.947 153.696 295.71 143.933Z" fill="#111827"/>
</svg>
